<svg id="svg4611" xmlns="http://www.w3.org/2000/svg" viewBox="0 0 224.15 207.8"><defs><style>.cls-1,.cls-2,.cls-3,.cls-4{fill:none;stroke:#000;}.cls-1{stroke-linecap:round;}.cls-1,.cls-2{stroke-miterlimit:11.34;stroke-width:5.67px;}.cls-3,.cls-4{stroke-linejoin:round;}.cls-3{stroke-width:5px;}.cls-4{stroke-width:4.93px;}</style></defs><g id="layer1"><g id="g2196"><path id="path1410" class="cls-1" d="M101.33,46.51C75.4,99.62,43.11,183.27-1.59,184.42" transform="translate(4.43 -7.8)"/><path id="path1412" class="cls-1" d="M101.62,46.08l.19,118.57" transform="translate(4.43 -7.8)"/></g><g id="g1451"><path id="path1412-7" class="cls-1" d="M110.15,45.85l.19,118.56" transform="translate(4.43 -7.8)"/><path id="path1435" class="cls-2" d="M110.15,45.85c73.15.13,72.74,76.59.19,78.22" transform="translate(4.43 -7.8)"/><path id="path1439" class="cls-1" d="M110.53,124.26C17.62,129,49.61,84.61,136.58,119.9" transform="translate(4.43 -7.8)"/><path id="path1441" class="cls-1" d="M137.14,120.28c32.76,15.65,46.28,62.79,79.74,62.88" transform="translate(4.43 -7.8)"/></g></g><path d="M64.85,34.33a7.29,7.29,0,0,1-1.91.75,5.86,5.86,0,0,1-1.84.14,4.44,4.44,0,0,1-2-.7,4.57,4.57,0,0,1-1.45-1.59.81.81,0,0,1-.08-.66.87.87,0,0,1,.42-.52.81.81,0,0,1,.63-.08.88.88,0,0,1,.51.42,2.6,2.6,0,0,0,2.08,1.43,3.6,3.6,0,0,0,1.33-.1A5.45,5.45,0,0,0,64,32.84a4.36,4.36,0,0,0,1-.79,3,3,0,0,0,.65-1,2.26,2.26,0,0,0-.15-2,1.83,1.83,0,0,0-1.21-.94,2.53,2.53,0,0,0-1.22,0c-.46.12-1,.27-1.58.47l-.67.21-.55.17-.51.14-.54.14a6,6,0,0,1-1,.18,3.54,3.54,0,0,1-.93,0,4.05,4.05,0,0,1-1.46-.71,4.24,4.24,0,0,1-1.1-1.31A3.23,3.23,0,0,1,54.34,26a3.75,3.75,0,0,1,.18-1.49,4.69,4.69,0,0,1,.27-.67,4.61,4.61,0,0,1,.48-.74,5.86,5.86,0,0,1,.74-.77,6.42,6.42,0,0,1,1.05-.73A6.09,6.09,0,0,1,58.34,21a5.94,5.94,0,0,1,1.16-.23,4.72,4.72,0,0,1,1,0,6,6,0,0,1,.82.16,3.91,3.91,0,0,1,.75.3,4.44,4.44,0,0,1,.7.46,3.26,3.26,0,0,1,.92,1,.88.88,0,0,1,.09.67.75.75,0,0,1-.37.51.87.87,0,0,1-1.19-.34,1.77,1.77,0,0,0-.46-.48,2.68,2.68,0,0,0-.94-.48,3.41,3.41,0,0,0-1.22-.1,4,4,0,0,0-1.7.58,4.53,4.53,0,0,0-1.14.88,2.62,2.62,0,0,0-.62,1,2,2,0,0,0-.11.91,1.68,1.68,0,0,0,.18.65,2.53,2.53,0,0,0,.49.62,1.62,1.62,0,0,0,.8.38,4.31,4.31,0,0,0,1.3,0,12.16,12.16,0,0,0,2-.46c.81-.25,1.54-.46,2.18-.61a3.61,3.61,0,0,1,1.79,0A3.57,3.57,0,0,1,67,28.18a4.07,4.07,0,0,1,.27,3.49,5.3,5.3,0,0,1-1,1.49A6.06,6.06,0,0,1,64.85,34.33Z" transform="translate(4.43 -7.8)"/><path d="M71.72,30.55a.89.89,0,0,1-.68,0,.9.9,0,0,1-.49-.47L65.3,18.51a.84.84,0,0,1,0-.66.87.87,0,0,1,.47-.49.84.84,0,0,1,.66,0,.88.88,0,0,1,.48.45l5.25,11.6a.89.89,0,0,1,0,.68A.88.88,0,0,1,71.72,30.55Z" transform="translate(4.43 -7.8)"/><path d="M85.21,25.51a.78.78,0,0,1-.74-.11L73.36,17.76l3.2,9.71a.84.84,0,0,1,0,.64.81.81,0,0,1-.49.42.8.8,0,0,1-.64-.05A.82.82,0,0,1,75,28L71,15.92a.74.74,0,0,1,0-.51A.77.77,0,0,1,71.3,15a.83.83,0,0,1,.47-.18.89.89,0,0,1,.5.15l11.11,7.67L80.17,12.9a.84.84,0,0,1,0-.64.86.86,0,0,1,.49-.43.82.82,0,0,1,.65.06.78.78,0,0,1,.41.48l4,12.08a.81.81,0,0,1,0,.51.89.89,0,0,1-.29.43Z" transform="translate(4.43 -7.8)"/><path d="M95.31,23.47a7.2,7.2,0,0,1-2.89-.07,7.73,7.73,0,0,1-2.55-1.14,7.43,7.43,0,0,1-2-2,7.09,7.09,0,0,1-1.07-2.68,7,7,0,0,1,.08-2.89,7.37,7.37,0,0,1,3.13-4.5,7,7,0,0,1,2.69-1.07,7.18,7.18,0,0,1,3.73.31.78.78,0,0,1,.51.44.84.84,0,0,1,0,.66.78.78,0,0,1-.45.5.87.87,0,0,1-.67,0,4.87,4.87,0,0,0-1.4-.3,5.46,5.46,0,0,0-1.45.08,5.19,5.19,0,0,0-2,.81,5.64,5.64,0,0,0-1.52,1.48,5.57,5.57,0,0,0-.85,1.94,5.43,5.43,0,0,0-.06,2.2,5.51,5.51,0,0,0,.81,2.05,5.83,5.83,0,0,0,1.48,1.53,5.51,5.51,0,0,0,1.94.87,5.29,5.29,0,0,0,2.21.05,5.24,5.24,0,0,0,1.49-.5,5.62,5.62,0,0,0,1.29-.87.81.81,0,0,1,.63-.25.83.83,0,0,1,.61.29.86.86,0,0,1,.23.62.92.92,0,0,1-.29.62A7.34,7.34,0,0,1,95.31,23.47Z" transform="translate(4.43 -7.8)"/><path d="M110,20.4a.85.85,0,0,1,.62.22.81.81,0,0,1,.28.6.87.87,0,0,1-.82.9l-8.42.39a.86.86,0,0,1-.63-.22.88.88,0,0,1-.29-.6l-.58-12.6a.84.84,0,0,1,.23-.62.81.81,0,0,1,.6-.28l8.43-.39a.81.81,0,0,1,.61.22.86.86,0,0,1-.53,1.5L102,9.87l.21,4.58,5-.23a.8.8,0,0,1,.62.22.81.81,0,0,1,.28.6.77.77,0,0,1-.22.61.82.82,0,0,1-.6.29l-5,.23.22,4.58Z" transform="translate(4.43 -7.8)"/><path d="M121.77,22.88a.69.69,0,0,1-.39-.19.73.73,0,0,1-.27-.76,3.73,3.73,0,0,1,.69-1.64A5.41,5.41,0,0,1,123,19.12a7.23,7.23,0,0,1,1.48-.78c.52-.21,1-.38,1.48-.52l.53-.14.57-.14c.56-.13,1.09-.28,1.58-.43a7.61,7.61,0,0,0,1.31-.52,3.21,3.21,0,0,0,.94-.75,2.25,2.25,0,0,0,.49-1.07,2.86,2.86,0,0,0,0-1.24,2.79,2.79,0,0,0-.53-1.06,3.4,3.4,0,0,0-1-.8,4.17,4.17,0,0,0-1.35-.48,3.22,3.22,0,0,0-3.75,1.89.74.74,0,0,1-.48.4.81.81,0,0,1-.63-.05.73.73,0,0,1-.4-.48.89.89,0,0,1,.06-.64A5.22,5.22,0,0,1,125.58,10a5,5,0,0,1,3.22-.38,6,6,0,0,1,2,.72,5.1,5.1,0,0,1,1.43,1.25,4.4,4.4,0,0,1,.78,1.63,4.45,4.45,0,0,1,0,1.89,3.64,3.64,0,0,1-.8,1.79A5.1,5.1,0,0,1,130.79,18a8,8,0,0,1-1.69.7c-.58.16-1.13.31-1.63.43l-1,.27a7.29,7.29,0,0,0-2.81,1.32,7,7,0,0,1,1.45-.2,3.89,3.89,0,0,1,1.12.15,3.53,3.53,0,0,1,1,.47,12.09,12.09,0,0,1,1,.76l.28.23a2.25,2.25,0,0,0,.73.43.94.94,0,0,0,.62,0,.68.68,0,0,0,.33-.2.61.61,0,0,0,.13-.23.79.79,0,0,1,.34-.53.75.75,0,0,1,.62-.13.73.73,0,0,1,.51.34.78.78,0,0,1,.13.61,2.08,2.08,0,0,1-.52,1,2.35,2.35,0,0,1-1,.68,2.68,2.68,0,0,1-.52.12,2.57,2.57,0,0,1-.68,0,3.79,3.79,0,0,1-.83-.24,3.69,3.69,0,0,1-.94-.6l-.27-.25a10.33,10.33,0,0,0-.89-.67,1.82,1.82,0,0,0-.88-.31,3.75,3.75,0,0,0-1.23.11,19.77,19.77,0,0,0-2,.58A.78.78,0,0,1,121.77,22.88Z" transform="translate(4.43 -7.8)"/><path d="M138.92,27.06a5.38,5.38,0,0,1-2.07-1.24,5.16,5.16,0,0,1-1.24-2,6.69,6.69,0,0,1-.35-2.54,10.42,10.42,0,0,1,.57-3,10.51,10.51,0,0,1,1.33-2.73A6.61,6.61,0,0,1,139,13.81a5,5,0,0,1,2.16-.81,5.33,5.33,0,0,1,2.41.27,5.06,5.06,0,0,1,2,1.24,5.22,5.22,0,0,1,1.23,2,6.92,6.92,0,0,1,.36,2.54,10,10,0,0,1-.55,2.93,10.75,10.75,0,0,1-1.33,2.74,6.75,6.75,0,0,1-1.79,1.82,5,5,0,0,1-2.15.81A5.44,5.44,0,0,1,138.92,27.06ZM143,14.72a3.92,3.92,0,0,0-1.64-.22,3.57,3.57,0,0,0-1.33.41,3.93,3.93,0,0,0-1,.82,7.27,7.27,0,0,0-.8,1.07,8.44,8.44,0,0,0-.58,1.11c-.15.36-.27.68-.36.94a9.68,9.68,0,0,0-.45,2,5.79,5.79,0,0,0,.09,2,4,4,0,0,0,.79,1.66,3.62,3.62,0,0,0,1.69,1.1,3.72,3.72,0,0,0,1.67.2,3.64,3.64,0,0,0,1.36-.45,4.52,4.52,0,0,0,1.06-.89,7.27,7.27,0,0,0,.78-1.09,6.89,6.89,0,0,0,.55-1.08c.14-.34.25-.62.32-.83a9.87,9.87,0,0,0,.43-2,5.87,5.87,0,0,0-.09-2,4.07,4.07,0,0,0-.78-1.7A3.44,3.44,0,0,0,143,14.72Z" transform="translate(4.43 -7.8)"/><path d="M149.05,31a.78.78,0,0,1-.42-.45.75.75,0,0,1,0-.62l4.52-9.8-1.3.47a.81.81,0,0,1-.61,0,.78.78,0,0,1-.42-.45.83.83,0,0,1,0-.62.73.73,0,0,1,.45-.41l3.12-1.15a.66.66,0,0,1,.46,0,.77.77,0,0,1,.41.25.82.82,0,0,1,.2.42.89.89,0,0,1-.06.46l-5.35,11.58a.73.73,0,0,1-.45.41A.76.76,0,0,1,149.05,31Z" transform="translate(4.43 -7.8)"/><path d="M155.52,34.31a.79.79,0,0,1-.38-.48.76.76,0,0,1,.07-.61l5.28-9.42-1.32.36a.77.77,0,0,1-.61-.07.79.79,0,0,1-.38-.49.77.77,0,0,1,.07-.61.79.79,0,0,1,.49-.38l3.19-.9a.75.75,0,0,1,.47,0,.91.91,0,0,1,.39.28.84.84,0,0,1,.16.44.79.79,0,0,1-.1.45L156.61,34a.8.8,0,0,1-1.09.31Z" transform="translate(4.43 -7.8)"/><path d="M67.54,204.47A.87.87,0,0,1,68,205a.87.87,0,0,1-.6,1.1.87.87,0,0,1-.67-.07l-7.55-4.14a.84.84,0,0,1-.42-.52.82.82,0,0,1,.06-.67L65,189.39a.89.89,0,0,1,.53-.42.85.85,0,0,1,.68.07l7.55,4.13a.86.86,0,0,1,.42.53.82.82,0,0,1-.07.67.87.87,0,0,1-.53.43.89.89,0,0,1-.66-.08L66.1,191l-2.24,4.11,4.51,2.47a.84.84,0,0,1,.42.52.91.91,0,0,1-.07.67.86.86,0,0,1-.53.42.83.83,0,0,1-.67-.07L63,196.66l-2.24,4.11Z" transform="translate(4.43 -7.8)"/><path d="M75.09,209.91a7.33,7.33,0,0,1-1.83-1A6,6,0,0,1,72,207.55a4.41,4.41,0,0,1-.42-4.16.81.81,0,0,1,.46-.5,1,1,0,0,1,.69,0,.81.81,0,0,1,.46.45.82.82,0,0,1,0,.67,2.67,2.67,0,0,0,.23,2.57,3.82,3.82,0,0,0,1,1,5.62,5.62,0,0,0,1.38.73,4.15,4.15,0,0,0,1.28.28,3,3,0,0,0,1.21-.15A2.31,2.31,0,0,0,79.71,207a1.88,1.88,0,0,0,0-1.56,2.57,2.57,0,0,0-.82-.95c-.39-.29-.86-.6-1.4-.93l-.6-.39-.49-.32-.44-.31-.46-.33a6,6,0,0,1-.8-.68,3.36,3.36,0,0,1-.57-.76,4.15,4.15,0,0,1-.4-1.6,4.51,4.51,0,0,1,.31-1.72,3.25,3.25,0,0,1,.82-1.22,3.58,3.58,0,0,1,1.28-.83,4.49,4.49,0,0,1,1.6-.33,5.19,5.19,0,0,1,1.08.08,6.27,6.27,0,0,1,1.26.34,6.37,6.37,0,0,1,1.28.64,7.57,7.57,0,0,1,.94.76,4.83,4.83,0,0,1,.64.79,5.74,5.74,0,0,1,.41.76,3.85,3.85,0,0,1,.25.77,4.93,4.93,0,0,1,.1.85,3.33,3.33,0,0,1-.17,1.37.89.89,0,0,1-.46.51.82.82,0,0,1-.65,0,.9.9,0,0,1-.49-.47.87.87,0,0,1,0-.69,2.14,2.14,0,0,0,.07-.67,3,3,0,0,0-.23-1.06,3.68,3.68,0,0,0-.72-1,4.05,4.05,0,0,0-1.57-1,5,5,0,0,0-1.43-.33,2.76,2.76,0,0,0-1.21.19,2.11,2.11,0,0,0-.79.5,2.07,2.07,0,0,0-.39.57,2.87,2.87,0,0,0-.17.79,1.67,1.67,0,0,0,.23.87,4.4,4.4,0,0,0,.84,1A13.29,13.29,0,0,0,78.16,202c.73.47,1.36.91,1.9,1.31a3.72,3.72,0,0,1,1.17,1.41,3.65,3.65,0,0,1,.09,2.9,4.21,4.21,0,0,1-1,1.55,4.29,4.29,0,0,1-1.56.94,5.51,5.51,0,0,1-1.78.23A6.31,6.31,0,0,1,75.09,209.91Z" transform="translate(4.43 -7.8)"/><path d="M95.48,200a.9.9,0,0,1,.56.38.87.87,0,0,1,.1.67.88.88,0,0,1-1,.67l-4.19-1-2.67,11.7a.81.81,0,0,1-.38.56.84.84,0,0,1-.68.1.88.88,0,0,1-.56-.38.82.82,0,0,1-.11-.67l2.66-11.7-4.19-1a.82.82,0,0,1-.55-.39.85.85,0,0,1-.12-.66.86.86,0,0,1,.4-.56.84.84,0,0,1,.66-.1Z" transform="translate(4.43 -7.8)"/><path d="M106.29,215.6a.66.66,0,0,1-.42-.11.74.74,0,0,1-.44-.71,3.89,3.89,0,0,1,.35-1.78,5.18,5.18,0,0,1,1-1.42,7.21,7.21,0,0,1,1.31-1.1c.48-.31.93-.59,1.37-.83.16-.08.32-.17.5-.25l.55-.26c.52-.25,1-.51,1.47-.76a7.14,7.14,0,0,0,1.2-.8,3.44,3.44,0,0,0,.79-.94,2.3,2.3,0,0,0,.25-1.18,2.86,2.86,0,0,0-.29-1.23,2.68,2.68,0,0,0-.76-.94,3.44,3.44,0,0,0-1.14-.6,4.28,4.28,0,0,0-1.45-.19,3.29,3.29,0,0,0-3.35,2.67.78.78,0,0,1-.39.51.87.87,0,0,1-.65.08.73.73,0,0,1-.5-.4.84.84,0,0,1-.07-.64,5.3,5.3,0,0,1,1.77-2.84,5.09,5.09,0,0,1,3.14-1.06,6,6,0,0,1,2.11.3,5.24,5.24,0,0,1,1.69.94,4.39,4.39,0,0,1,1.13,1.47,4.55,4.55,0,0,1,.44,1.88,3.79,3.79,0,0,1-.42,2,5.53,5.53,0,0,1-1.17,1.46,8.38,8.38,0,0,1-1.54,1.05c-.56.29-1.07.55-1.54.77s-.68.34-1,.49A7.69,7.69,0,0,0,107.7,213a7.34,7.34,0,0,1,1.41-.5,3.89,3.89,0,0,1,1.16-.09,3.66,3.66,0,0,1,1.06.26,10.9,10.9,0,0,1,1.16.56l.33.17a2.48,2.48,0,0,0,.81.27,1,1,0,0,0,.63-.13.61.61,0,0,0,.28-.27.45.45,0,0,0,.08-.26.84.84,0,0,1,.23-.6.76.76,0,0,1,.59-.26.78.78,0,0,1,.59.23.81.81,0,0,1,.25.58,2.19,2.19,0,0,1-.29,1.13,2.6,2.6,0,0,1-.83.88,2.24,2.24,0,0,1-.49.24,2.72,2.72,0,0,1-.69.14,3.06,3.06,0,0,1-.88-.07,3.78,3.78,0,0,1-1.06-.4l-.33-.19q-.58-.3-1-.48a2,2,0,0,0-1-.13,4.33,4.33,0,0,0-1.21.38,19.35,19.35,0,0,0-1.84,1A.86.86,0,0,1,106.29,215.6Z" transform="translate(4.43 -7.8)"/><path d="M126.13,214a5.24,5.24,0,0,1-4.54-1.21,6.91,6.91,0,0,1-1.57-2.09,10.61,10.61,0,0,1-1-2.93,11.09,11.09,0,0,1-.18-3.1,7.08,7.08,0,0,1,.7-2.51,5.2,5.2,0,0,1,1.53-1.79,5.54,5.54,0,0,1,2.29-.95,5.17,5.17,0,0,1,2.42.09,5.3,5.3,0,0,1,2.08,1.16,7,7,0,0,1,1.58,2.08,10.3,10.3,0,0,1,1,2.9,11.08,11.08,0,0,1,.17,3.1,6.88,6.88,0,0,1-.7,2.51,5.07,5.07,0,0,1-1.52,1.79A5.4,5.4,0,0,1,126.13,214Zm-2.44-13a3.81,3.81,0,0,0-1.56.62,3.42,3.42,0,0,0-1,1,4,4,0,0,0-.53,1.25,7.19,7.19,0,0,0-.19,1.35,10.74,10.74,0,0,0,0,1.28c0,.4.09.74.14,1a10,10,0,0,0,.6,2,6.25,6.25,0,0,0,1.06,1.71,4,4,0,0,0,1.53,1.08,3.58,3.58,0,0,0,2,.15,3.83,3.83,0,0,0,1.59-.64,3.61,3.61,0,0,0,1-1.08,4.41,4.41,0,0,0,.51-1.32,8.25,8.25,0,0,0,.11-2.59c0-.38-.08-.68-.12-.91a10.35,10.35,0,0,0-.6-2,6.34,6.34,0,0,0-1-1.72,4.25,4.25,0,0,0-1.54-1.12A3.46,3.46,0,0,0,123.69,201Z" transform="translate(4.43 -7.8)"/><path d="M136.21,211.61a.89.89,0,0,1-1.08-.51,3.92,3.92,0,0,1-.22-1.8,5.78,5.78,0,0,1,.48-1.66,7.22,7.22,0,0,1,.91-1.45c.36-.45.7-.85,1-1.21.12-.13.26-.27.4-.4l.44-.41c.42-.41.81-.8,1.17-1.18a8.47,8.47,0,0,0,.89-1.14,3.23,3.23,0,0,0,.45-1.14,2.29,2.29,0,0,0-.12-1.2,2.81,2.81,0,0,0-.66-1.08,3,3,0,0,0-1-.66,3.74,3.74,0,0,0-1.28-.21,4.11,4.11,0,0,0-1.43.27,3.29,3.29,0,0,0-2.36,3.58.77.77,0,0,1-.21.61.84.84,0,0,1-.59.27.73.73,0,0,1-.6-.22.84.84,0,0,1-.27-.59,5.3,5.3,0,0,1,.8-3.25,5.14,5.14,0,0,1,2.66-2,5.9,5.9,0,0,1,2.1-.37,5.14,5.14,0,0,1,1.9.37,4.45,4.45,0,0,1,1.53,1.05,4.6,4.6,0,0,1,1,1.65,3.73,3.73,0,0,1,.2,2,5.15,5.15,0,0,1-.66,1.75,7.78,7.78,0,0,1-1.14,1.48c-.43.44-.84.85-1.22,1.21s-.54.53-.77.76a7.83,7.83,0,0,0-1.81,2.6,8,8,0,0,1,1.18-.91,3.9,3.9,0,0,1,1.08-.44,3.58,3.58,0,0,1,1.09-.09c.38,0,.8.09,1.27.17l.37.07a2.47,2.47,0,0,0,.86,0,.92.92,0,0,0,.55-.32.69.69,0,0,0,.19-.34.51.51,0,0,0,0-.28.86.86,0,0,1,0-.63.83.83,0,0,1,.48-.44.77.77,0,0,1,.63,0,.82.82,0,0,1,.43.48,2.06,2.06,0,0,1,.06,1.16,2.47,2.47,0,0,1-.51,1.1,2.82,2.82,0,0,1-.39.37,2.71,2.71,0,0,1-.61.35,3.28,3.28,0,0,1-.86.21,4.11,4.11,0,0,1-1.14,0l-.36-.08c-.44-.07-.81-.12-1.13-.14a1.81,1.81,0,0,0-.93.17,4.07,4.07,0,0,0-1,.73,19.19,19.19,0,0,0-1.44,1.52A1.08,1.08,0,0,1,136.21,211.61Z" transform="translate(4.43 -7.8)"/><path d="M154.56,204a5.24,5.24,0,0,1-4.7.26,6.86,6.86,0,0,1-2.14-1.49,12,12,0,0,1-2.95-5.38,6.81,6.81,0,0,1-.11-2.6,5,5,0,0,1,.89-2.18,5.5,5.5,0,0,1,1.87-1.62,5.19,5.19,0,0,1,2.34-.67,5.46,5.46,0,0,1,2.34.46,7.19,7.19,0,0,1,2.15,1.49,10.46,10.46,0,0,1,1.81,2.45,11.28,11.28,0,0,1,1.13,2.89,6.86,6.86,0,0,1,.11,2.61,5.11,5.11,0,0,1-.88,2.17A5.43,5.43,0,0,1,154.56,204Zm-6.39-11.64a3.89,3.89,0,0,0-1.29,1.07,3.69,3.69,0,0,0-.62,1.28,3.64,3.64,0,0,0-.11,1.36,7.37,7.37,0,0,0,.24,1.34,8.48,8.48,0,0,0,.43,1.2q.26.56.45.93a10.68,10.68,0,0,0,1.21,1.75,5.78,5.78,0,0,0,1.53,1.29,4.12,4.12,0,0,0,1.8.56,3.74,3.74,0,0,0,2-.5,4.05,4.05,0,0,0,1.31-1.11,3.61,3.61,0,0,0,.6-1.33,4.46,4.46,0,0,0,.07-1.41,7.34,7.34,0,0,0-.27-1.35,9,9,0,0,0-.43-1.15c-.16-.35-.29-.62-.4-.82a9.68,9.68,0,0,0-1.18-1.69,6.5,6.5,0,0,0-1.53-1.31,4.39,4.39,0,0,0-1.82-.59A3.55,3.55,0,0,0,148.17,192.32Z" transform="translate(4.43 -7.8)"/><path class="cls-3" d="M72.2,19.91" transform="translate(4.43 -7.8)"/><path class="cls-3" d="M55.83,194.76a98.17,98.17,0,0,1-3.31-164.5" transform="translate(4.43 -7.8)"/><path class="cls-4" d="M141.44,203.62" transform="translate(4.43 -7.8)"/><path class="cls-4" d="M162.29,29.86a98.16,98.16,0,0,1-2.73,164.9" transform="translate(4.43 -7.8)"/></svg>