<svg id="svg4611" xmlns="http://www.w3.org/2000/svg" viewBox="0 0 224.15 204.9"><defs><style>.cls-1,.cls-2,.cls-3,.cls-4{fill:none;stroke:#000;}.cls-1{stroke-linecap:round;}.cls-1,.cls-2{stroke-miterlimit:11.34;stroke-width:5.67px;}.cls-3,.cls-4{stroke-linejoin:round;}.cls-3{stroke-width:5px;}.cls-4{stroke-width:4.93px;}</style></defs><g id="layer1"><g id="g2196"><path id="path1410" class="cls-1" d="M101.33,46.51C75.4,99.62,43.11,183.27-1.59,184.42" transform="translate(4.43 -9.54)"/><path id="path1412" class="cls-1" d="M101.62,46.08l.19,118.57" transform="translate(4.43 -9.54)"/></g><g id="g1451"><path id="path1412-7" class="cls-1" d="M110.15,45.85l.19,118.56" transform="translate(4.43 -9.54)"/><path id="path1435" class="cls-2" d="M110.15,45.85c73.15.13,72.74,76.59.19,78.22" transform="translate(4.43 -9.54)"/><path id="path1439" class="cls-1" d="M110.53,124.26C17.62,129,49.61,84.61,136.58,119.9" transform="translate(4.43 -9.54)"/><path id="path1441" class="cls-1" d="M137.14,120.28c32.76,15.65,46.28,62.79,79.74,62.88" transform="translate(4.43 -9.54)"/></g></g><path d="M80.72,22.58a4.56,4.56,0,0,1-1.24.19,3.37,3.37,0,0,1-1.12-.17,2.63,2.63,0,0,1-1.07-.67,2.77,2.77,0,0,1-.65-1.15.47.47,0,0,1,0-.4.57.57,0,0,1,.33-.26.5.5,0,0,1,.38,0,.48.48,0,0,1,.25.32,1.6,1.6,0,0,0,1.05,1.14,2.37,2.37,0,0,0,.81.11,3,3,0,0,0,.92-.15,2.64,2.64,0,0,0,.72-.34,1.94,1.94,0,0,0,.52-.51,1.41,1.41,0,0,0,.19-1.24,1.1,1.1,0,0,0-.6-.72,1.53,1.53,0,0,0-.74-.16c-.29,0-.62,0-1,.07l-.43,0-.35,0-.32,0h-.34a3.25,3.25,0,0,1-.63,0,2.34,2.34,0,0,1-.55-.15,2.45,2.45,0,0,1-.77-.62,2.57,2.57,0,0,1-.49-.93,2.14,2.14,0,0,1-.06-.88,2.17,2.17,0,0,1,.31-.86,2.57,2.57,0,0,1,.64-.74,2.82,2.82,0,0,1,.54-.36,3.27,3.27,0,0,1,.73-.3,4,4,0,0,1,.84-.16,3.39,3.39,0,0,1,.72,0,2.11,2.11,0,0,1,.6.14,4.15,4.15,0,0,1,.47.2,2.63,2.63,0,0,1,.4.28,2.53,2.53,0,0,1,.36.37,2.11,2.11,0,0,1,.42.71.58.58,0,0,1,0,.41.51.51,0,0,1-.3.26.52.52,0,0,1-.4-.05.5.5,0,0,1-.26-.32,1.31,1.31,0,0,0-.21-.35,2,2,0,0,0-.5-.41,2.13,2.13,0,0,0-.71-.22,2.48,2.48,0,0,0-1.1.12,3,3,0,0,0-.8.37,1.71,1.71,0,0,0-.51.53,1.31,1.31,0,0,0-.19.53,1.27,1.27,0,0,0,0,.41,1.63,1.63,0,0,0,.21.44,1,1,0,0,0,.42.33,2.84,2.84,0,0,0,.78.17,7.25,7.25,0,0,0,1.24,0c.53-.05,1-.07,1.39-.08a2.31,2.31,0,0,1,1.07.24,2.16,2.16,0,0,1,1.1,1.35,2.34,2.34,0,0,1,.09,1.11,2.66,2.66,0,0,1-.39,1,3.27,3.27,0,0,1-.77.76A3.54,3.54,0,0,1,80.72,22.58Z" transform="translate(4.43 -9.54)"/><path d="M85.4,21.13a.59.59,0,0,1-.41-.06.57.57,0,0,1-.24-.34L82.9,13.15a.54.54,0,0,1,.4-.64.56.56,0,0,1,.4.06.5.5,0,0,1,.24.33l1.85,7.58a.5.5,0,0,1-.06.41A.57.57,0,0,1,85.4,21.13Z" transform="translate(4.43 -9.54)"/><path d="M94.12,19.36a.43.43,0,0,1-.43-.13l-6.07-5.6,1.09,6.17a.51.51,0,0,1-.09.38.46.46,0,0,1-.33.21.52.52,0,0,1-.6-.42L86.34,12.3a.47.47,0,0,1,0-.31.49.49,0,0,1,.23-.22.46.46,0,0,1,.3-.07.59.59,0,0,1,.29.13l6.06,5.63-1.08-6.18a.52.52,0,0,1,.41-.6.52.52,0,0,1,.6.42l1.35,7.67a.47.47,0,0,1,0,.31.46.46,0,0,1-.38.28Z" transform="translate(4.43 -9.54)"/><path d="M100.54,18.71a4.31,4.31,0,0,1-1.76-.2,4.53,4.53,0,0,1-2.58-2.15,4.48,4.48,0,0,1-.51-1.7,4.33,4.33,0,0,1,.2-1.76,4.44,4.44,0,0,1,.83-1.49,4.71,4.71,0,0,1,1.33-1.09,4.21,4.21,0,0,1,1.69-.5,4.43,4.43,0,0,1,2.27.39.45.45,0,0,1,.28.29.51.51,0,0,1,0,.4.48.48,0,0,1-.3.29.53.53,0,0,1-.41,0,3.19,3.19,0,0,0-.83-.26,3.31,3.31,0,0,0-.89,0,3.18,3.18,0,0,0-1.3.39,3.41,3.41,0,0,0-1.78,3.29,3.28,3.28,0,0,0,.38,1.3,3.48,3.48,0,0,0,2,1.65,3.32,3.32,0,0,0,1.34.15,3.68,3.68,0,0,0,.94-.22,3.56,3.56,0,0,0,.83-.47.49.49,0,0,1,.4-.12.52.52,0,0,1,.36.21.51.51,0,0,1,.1.39.54.54,0,0,1-.2.36A4.53,4.53,0,0,1,100.54,18.71Z" transform="translate(4.43 -9.54)"/><path d="M109.74,17.26a.51.51,0,0,1,.37.15.47.47,0,0,1,.16.37.46.46,0,0,1-.15.38.51.51,0,0,1-.37.16l-5.16.08a.46.46,0,0,1-.38-.15.47.47,0,0,1-.16-.37l-.13-7.72a.54.54,0,0,1,.15-.38.55.55,0,0,1,.38-.16l5.16-.08a.54.54,0,0,1,.38.15.51.51,0,0,1,.16.37.52.52,0,0,1-.15.38.51.51,0,0,1-.37.15l-4.63.08,0,2.81,3.09-.05a.44.44,0,0,1,.37.15.47.47,0,0,1,.16.37.46.46,0,0,1-.15.37.47.47,0,0,1-.37.16l-3.08,0,0,2.81Z" transform="translate(4.43 -9.54)"/><path d="M117.09,18.77a.53.53,0,0,1-.24-.11.45.45,0,0,1-.2-.46,2.41,2.41,0,0,1,.38-1,3.41,3.41,0,0,1,.71-.76,4.08,4.08,0,0,1,.88-.52,8.81,8.81,0,0,1,.88-.37l.32-.1.35-.1c.34-.1.65-.21,1-.32a4.7,4.7,0,0,0,.78-.36,2.06,2.06,0,0,0,.56-.49,1.43,1.43,0,0,0,.26-.67,1.92,1.92,0,0,0-.06-.76,2,2,0,0,0-.36-.63,2.33,2.33,0,0,0-.63-.46,2.74,2.74,0,0,0-.84-.24,2,2,0,0,0-2.23,1.27.49.49,0,0,1-.28.27.53.53,0,0,1-.39,0,.45.45,0,0,1-.26-.28.48.48,0,0,1,0-.39A3.19,3.19,0,0,1,119,10.73a3,3,0,0,1,2-.33,3.41,3.41,0,0,1,1.22.37,3,3,0,0,1,.92.72,2.7,2.7,0,0,1,.53,1,2.8,2.8,0,0,1,.09,1.16,2.38,2.38,0,0,1-.44,1.12,3.13,3.13,0,0,1-.83.75,4.68,4.68,0,0,1-1,.48l-1,.31-.62.2a4.65,4.65,0,0,0-1.68.9,4.24,4.24,0,0,1,.88-.16,2.25,2.25,0,0,1,.7.05,2.12,2.12,0,0,1,.61.25c.19.12.4.27.63.44l.18.13a1.36,1.36,0,0,0,.46.24.54.54,0,0,0,.38,0,.38.38,0,0,0,.19-.13.37.37,0,0,0,.08-.15.44.44,0,0,1,.19-.33.45.45,0,0,1,.37-.11.47.47,0,0,1,.33.2.48.48,0,0,1,.09.37,1.26,1.26,0,0,1-.28.64,1.52,1.52,0,0,1-.88.54,1.46,1.46,0,0,1-.42,0,1.84,1.84,0,0,1-.52-.12,2.07,2.07,0,0,1-.59-.33l-.18-.15-.56-.38a1.22,1.22,0,0,0-.55-.16,2.55,2.55,0,0,0-.75.11,10.43,10.43,0,0,0-1.18.42A.55.55,0,0,1,117.09,18.77Z" transform="translate(4.43 -9.54)"/><path d="M127.88,20.58a3.31,3.31,0,0,1-1.34-.62,3.22,3.22,0,0,1-.89-1.11,4.25,4.25,0,0,1-.38-1.52,6.59,6.59,0,0,1,.15-1.84,7,7,0,0,1,.63-1.76,4.15,4.15,0,0,1,1-1.22,3,3,0,0,1,1.26-.64,3.4,3.4,0,0,1,1.49,0,3.1,3.1,0,0,1,1.32.62,3.29,3.29,0,0,1,.88,1.13,4.41,4.41,0,0,1,.39,1.52,6.48,6.48,0,0,1-.15,1.82,6.55,6.55,0,0,1-.62,1.75,4.23,4.23,0,0,1-1,1.23,3.28,3.28,0,0,1-1.26.64A3.36,3.36,0,0,1,127.88,20.58Zm1.69-7.79a2.31,2.31,0,0,0-1,0,2,2,0,0,0-.78.33,2.66,2.66,0,0,0-.59.57,4.56,4.56,0,0,0-.41.7,4.63,4.63,0,0,0-.28.72,5.51,5.51,0,0,0-.16.6A6,6,0,0,0,126.2,17a3.48,3.48,0,0,0,.18,1.18,2.52,2.52,0,0,0,.6,1,2.17,2.17,0,0,0,1.1.56,2.22,2.22,0,0,0,1.83-.35,2.8,2.8,0,0,0,.58-.61,5.27,5.27,0,0,0,.41-.72,6,6,0,0,0,.26-.69c.06-.22.11-.4.14-.53a6.26,6.26,0,0,0,.13-1.23,3.85,3.85,0,0,0-.18-1.19,2.57,2.57,0,0,0-.59-1A2.16,2.16,0,0,0,129.57,12.79Z" transform="translate(4.43 -9.54)"/><path d="M134.43,22.16a.51.51,0,0,1-.3-.24.47.47,0,0,1,0-.37l1.83-6.35-.74.4a.53.53,0,0,1-.37,0,.51.51,0,0,1-.3-.24.53.53,0,0,1,0-.37.51.51,0,0,1,.24-.3l1.78-1a.5.5,0,0,1,.27-.07.54.54,0,0,1,.28.11.78.78,0,0,1,.16.24.48.48,0,0,1,0,.29L135,21.82a.51.51,0,0,1-.24.3A.48.48,0,0,1,134.43,22.16Z" transform="translate(4.43 -9.54)"/><path d="M138.77,23.54a.5.5,0,0,1-.31-.62l2.14-6.26-.76.36a.5.5,0,0,1-.38,0,.53.53,0,0,1-.28-.25.5.5,0,0,1,.23-.66l1.83-.9a.41.41,0,0,1,.27-.05.55.55,0,0,1,.27.12.58.58,0,0,1,.15.25.53.53,0,0,1,0,.28l-2.53,7.39a.45.45,0,0,1-.25.29A.44.44,0,0,1,138.77,23.54Z" transform="translate(4.43 -9.54)"/><path d="M84.87,210.39a.5.5,0,0,1,.32.25.47.47,0,0,1,0,.4.5.5,0,0,1-.25.32.51.51,0,0,1-.4,0l-5-1.44a.5.5,0,0,1-.32-.25.52.52,0,0,1,0-.4l2.15-7.43a.49.49,0,0,1,.25-.31.54.54,0,0,1,.41-.05L87,203a.49.49,0,0,1,.31.25.51.51,0,0,1,0,.4.49.49,0,0,1-.26.32.48.48,0,0,1-.39,0l-4.45-1.29-.78,2.7,3,.86a.49.49,0,0,1,.31.25.51.51,0,0,1,0,.4.5.5,0,0,1-.25.32.51.51,0,0,1-.4,0l-3-.85-.78,2.69Z" transform="translate(4.43 -9.54)"/><path d="M89.66,212.77a4.34,4.34,0,0,1-1.18-.42,3.38,3.38,0,0,1-.91-.68,2.67,2.67,0,0,1-.62-1.11,2.62,2.62,0,0,1,0-1.31.49.49,0,0,1,.23-.34.51.51,0,0,1,.4-.07.47.47,0,0,1,.32.21.51.51,0,0,1,.07.4,1.61,1.61,0,0,0,.38,1.5,2.58,2.58,0,0,0,.66.49,3,3,0,0,0,.89.3,2.57,2.57,0,0,0,.78,0,2,2,0,0,0,.71-.21,1.36,1.36,0,0,0,.75-1,1.13,1.13,0,0,0-.18-.92,1.48,1.48,0,0,0-.58-.48c-.26-.14-.56-.27-.92-.42l-.39-.17-.32-.15-.29-.13-.31-.16a3.11,3.11,0,0,1-.53-.32,2,2,0,0,1-.41-.4,2.62,2.62,0,0,1-.39-.91,2.67,2.67,0,0,1,0-1.05,2.13,2.13,0,0,1,.36-.8,2.32,2.32,0,0,1,.68-.61,3,3,0,0,1,.4-.2,3,3,0,0,1,.52-.15,3.27,3.27,0,0,1,.65-.06,3.74,3.74,0,0,1,.78.09A3.67,3.67,0,0,1,92,204a4.29,4.29,0,0,1,.64.36,2.59,2.59,0,0,1,.45.41,3.81,3.81,0,0,1,.32.41,2.48,2.48,0,0,1,.22.43,2.85,2.85,0,0,1,.14.5,1.92,1.92,0,0,1,0,.82.54.54,0,0,1-.23.35.46.46,0,0,1-.37.08.48.48,0,0,1-.34-.23.51.51,0,0,1-.07-.4,1.28,1.28,0,0,0,0-.41,1.8,1.8,0,0,0-.23-.6,2.21,2.21,0,0,0-.53-.54,2.55,2.55,0,0,0-1-.41,3.37,3.37,0,0,0-.88-.06,1.57,1.57,0,0,0-.7.23,1.4,1.4,0,0,0-.42.37,1.12,1.12,0,0,0-.17.38,1.94,1.94,0,0,0,0,.48,1,1,0,0,0,.22.49,2.5,2.5,0,0,0,.6.53,8.21,8.21,0,0,0,1.1.58c.48.21.9.41,1.25.6a2.35,2.35,0,0,1,.83.72,2.15,2.15,0,0,1,.33,1.71,2.51,2.51,0,0,1-.45,1,2.47,2.47,0,0,1-.83.71,3,3,0,0,1-1,.3A3.38,3.38,0,0,1,89.66,212.77Z" transform="translate(4.43 -9.54)"/><path d="M101,205.34a.53.53,0,0,1,.36.19.55.55,0,0,1,.1.4.51.51,0,0,1-.2.35.49.49,0,0,1-.39.11l-2.56-.32-.87,7.15a.54.54,0,0,1-.2.36.55.55,0,0,1-.4.1.51.51,0,0,1-.35-.2.46.46,0,0,1-.11-.39l.87-7.15-2.56-.31a.53.53,0,0,1-.46-.59.47.47,0,0,1,.2-.35.49.49,0,0,1,.39-.11Z" transform="translate(4.43 -9.54)"/><path d="M107.75,214.44a.52.52,0,0,1-.51-.49,2.33,2.33,0,0,1,.21-1.07A3.4,3.4,0,0,1,108,212a4.54,4.54,0,0,1,.79-.66c.29-.18.56-.35.82-.49l.31-.15.32-.15c.32-.15.62-.3.89-.45a4.09,4.09,0,0,0,.72-.48,1.83,1.83,0,0,0,.48-.57,1.45,1.45,0,0,0,.16-.7,1.79,1.79,0,0,0-.18-.74,1.65,1.65,0,0,0-.45-.57,2.31,2.31,0,0,0-.68-.36,2.48,2.48,0,0,0-.87-.12,2,2,0,0,0-2,1.59.44.44,0,0,1-.24.31.48.48,0,0,1-.39,0,.41.41,0,0,1-.29-.24.46.46,0,0,1,0-.38,3,3,0,0,1,3-2.33,3.66,3.66,0,0,1,1.26.19,3.2,3.2,0,0,1,1,.57,2.71,2.71,0,0,1,.68.89,2.8,2.8,0,0,1,.26,1.13,2.3,2.3,0,0,1-.27,1.17,3.27,3.27,0,0,1-.7.87,5.19,5.19,0,0,1-.93.62c-.34.17-.64.33-.93.46l-.58.29a4.57,4.57,0,0,0-1.52,1.14,4.1,4.1,0,0,1,.84-.3,2.43,2.43,0,0,1,.7-.05,2.15,2.15,0,0,1,.64.16,7.24,7.24,0,0,1,.69.34l.19.1a1.37,1.37,0,0,0,.49.17.58.58,0,0,0,.38-.08.38.38,0,0,0,.17-.16.37.37,0,0,0,.05-.15.48.48,0,0,1,.14-.36.46.46,0,0,1,.35-.16.45.45,0,0,1,.35.14.54.54,0,0,1,.16.35,1.3,1.3,0,0,1-.19.68,1.49,1.49,0,0,1-.5.53,1.58,1.58,0,0,1-.29.14,1.66,1.66,0,0,1-.41.08,2,2,0,0,1-.53-.05,2.42,2.42,0,0,1-.64-.24l-.19-.12c-.24-.12-.44-.22-.62-.29a1.16,1.16,0,0,0-.56-.08,2.62,2.62,0,0,0-.73.23c-.28.12-.65.32-1.11.58A.44.44,0,0,1,107.75,214.44Z" transform="translate(4.43 -9.54)"/><path d="M119.3,213.89a3.14,3.14,0,0,1-1.47-.16,3,3,0,0,1-1.19-.77,4.07,4.07,0,0,1-.85-1.31,7,7,0,0,1-.41-3.66,3.83,3.83,0,0,1,.53-1.47,3,3,0,0,1,1-1,3.32,3.32,0,0,1,1.41-.47,3,3,0,0,1,1.44.17,3,3,0,0,1,1.2.78,4.17,4.17,0,0,1,.85,1.32,6.2,6.2,0,0,1,.45,1.77,6.74,6.74,0,0,1,0,1.86,4.19,4.19,0,0,1-.53,1.47,3.18,3.18,0,0,1-1,1A3.32,3.32,0,0,1,119.3,213.89Zm-.89-7.92a2.41,2.41,0,0,0-1,.3,2.36,2.36,0,0,0-.64.57,2.39,2.39,0,0,0-.37.73,4.57,4.57,0,0,0-.17.8,4.93,4.93,0,0,0,0,.76c0,.25,0,.45,0,.62a5.81,5.81,0,0,0,.28,1.25,3.73,3.73,0,0,0,.55,1.07,2.59,2.59,0,0,0,.87.71,2.23,2.23,0,0,0,1.23.18,2.18,2.18,0,0,0,1-.32,1.94,1.94,0,0,0,.64-.6,2.21,2.21,0,0,0,.36-.76,5,5,0,0,0,.16-.81,4.77,4.77,0,0,0,0-.74c0-.23,0-.41,0-.55a6.48,6.48,0,0,0-.27-1.2,3.93,3.93,0,0,0-.55-1.08,2.62,2.62,0,0,0-.88-.74A2.08,2.08,0,0,0,118.41,206Z" transform="translate(4.43 -9.54)"/><path d="M125.11,213a.46.46,0,0,1-.26,0,.46.46,0,0,1-.34-.37,2.22,2.22,0,0,1,0-1.09,3.24,3.24,0,0,1,.42-1,4.13,4.13,0,0,1,.66-.78c.25-.24.49-.45.72-.64l.27-.2.29-.21c.29-.2.55-.4.8-.6a5.1,5.1,0,0,0,.62-.6,1.9,1.9,0,0,0,.37-.64,1.44,1.44,0,0,0,0-.72,1.79,1.79,0,0,0-.31-.7,1.52,1.52,0,0,0-.54-.47,2.15,2.15,0,0,0-.74-.24,2.64,2.64,0,0,0-.88,0,2,2,0,0,0-1.69,1.93.52.52,0,0,1-.18.34.53.53,0,0,1-.38.12.46.46,0,0,1-.34-.18.51.51,0,0,1-.1-.38,3.13,3.13,0,0,1,.75-1.86,3,3,0,0,1,1.74-1,3.7,3.7,0,0,1,1.28,0,3,3,0,0,1,1.09.38,2.7,2.7,0,0,1,.83.75,2.79,2.79,0,0,1,.45,1.06,2.3,2.3,0,0,1,0,1.2,3.46,3.46,0,0,1-.54,1,5,5,0,0,1-.8.79l-.83.61L127,210a4.55,4.55,0,0,0-1.3,1.4,4,4,0,0,1,.78-.44,2.29,2.29,0,0,1,.68-.18,2.13,2.13,0,0,1,.66,0c.22.05.46.12.74.21l.21.07a1.39,1.39,0,0,0,.51.07.53.53,0,0,0,.35-.14.41.41,0,0,0,.14-.19.36.36,0,0,0,0-.16.5.5,0,0,1,.06-.38.54.54,0,0,1,.33-.22.5.5,0,0,1,.37.08.51.51,0,0,1,.21.32,1.22,1.22,0,0,1-.06.7,1.52,1.52,0,0,1-.39.6,1.17,1.17,0,0,1-.27.19,1.38,1.38,0,0,1-.39.16,2.12,2.12,0,0,1-.53.05,2.21,2.21,0,0,1-.67-.12l-.21-.08a6.81,6.81,0,0,0-.66-.18,1.23,1.23,0,0,0-.57,0,2.72,2.72,0,0,0-.67.35c-.26.18-.58.44-1,.78A.51.51,0,0,1,125.11,213Z" transform="translate(4.43 -9.54)"/><path d="M136.37,210.4a3.23,3.23,0,0,1-1.47.12,3.18,3.18,0,0,1-1.32-.55,4.06,4.06,0,0,1-1.07-1.14,6.49,6.49,0,0,1-.76-1.68,6.63,6.63,0,0,1-.31-1.84,4.15,4.15,0,0,1,.26-1.54,3,3,0,0,1,.79-1.17,3.42,3.42,0,0,1,1.3-.72,3.14,3.14,0,0,1,1.45-.1,3.26,3.26,0,0,1,1.32.55,4.55,4.55,0,0,1,1.08,1.14,6.42,6.42,0,0,1,.76,1.67,6.62,6.62,0,0,1,.31,1.83,4.2,4.2,0,0,1-.26,1.55,3,3,0,0,1-.79,1.16A3.07,3.07,0,0,1,136.37,210.4Zm-2.31-7.62a2.22,2.22,0,0,0-.89.47,2.06,2.06,0,0,0-.52.67,2.41,2.41,0,0,0-.24.79,4.39,4.39,0,0,0,0,.81,4.48,4.48,0,0,0,.11.76q.08.36.15.6a6.12,6.12,0,0,0,.49,1.18,3.72,3.72,0,0,0,.74.95,2.4,2.4,0,0,0,1,.54,2.17,2.17,0,0,0,1.23,0,2.34,2.34,0,0,0,.9-.49,2.07,2.07,0,0,0,.52-.71,2.55,2.55,0,0,0,.22-.82,4.51,4.51,0,0,0,0-.82,4.89,4.89,0,0,0-.11-.73c0-.23-.1-.4-.14-.53a6.27,6.27,0,0,0-.48-1.14,3.72,3.72,0,0,0-.74-1,2.73,2.73,0,0,0-1-.57A2.08,2.08,0,0,0,134.06,202.78Z" transform="translate(4.43 -9.54)"/><path class="cls-3" d="M76.44,204.49A98.18,98.18,0,0,1,72.2,19.91" transform="translate(4.43 -9.54)"/><path class="cls-4" d="M144.2,20.3a98.19,98.19,0,0,1-2.76,183.32" transform="translate(4.43 -9.54)"/></svg>